<?xml version="1.0" standalone="no"?>
<!DOCTYPE svg PUBLIC "-//W3C//DTD SVG 1.1//EN" "http://www.w3.org/Graphics/SVG/1.1/DTD/svg11.dtd" >
<!--
2013-9-30: Created.
-->
<svg>
<metadata>
Created by iconfont
</metadata>
<defs>

<font id="iconfont" horiz-adv-x="1024" >
  <font-face
    font-family="iconfont"
    font-weight="500"
    font-stretch="normal"
    units-per-em="1024"
    ascent="896"
    descent="-128"
  />
    <missing-glyph />
    
    <glyph glyph-name="x" unicode="x" horiz-adv-x="1001"
d="M281 543q-27 -1 -53 -1h-83q-18 0 -36.5 -6t-32.5 -18.5t-23 -32t-9 -45.5v-76h912v41q0 16 -0.5 30t-0.5 18q0 13 -5 29t-17 29.5t-31.5 22.5t-49.5 9h-133v-97h-438v97zM955 310v-52q0 -23 0.5 -52t0.5 -58t-10.5 -47.5t-26 -30t-33 -16t-31.5 -4.5q-14 -1 -29.5 -0.5
t-29.5 0.5h-32l-45 128h-439l-44 -128h-29h-34q-20 0 -45 1q-25 0 -41 9.5t-25.5 23t-13.5 29.5t-4 30v167h911zM163 247q-12 0 -21 -8.5t-9 -21.5t9 -21.5t21 -8.5q13 0 22 8.5t9 21.5t-9 21.5t-22 8.5zM316 123q-8 -26 -14 -48q-5 -19 -10.5 -37t-7.5 -25t-3 -15t1 -14.5
t9.5 -10.5t21.5 -4h37h67h81h80h64h36q23 0 34 12t2 38q-5 13 -9.5 30.5t-9.5 34.5q-5 19 -11 39h-368zM336 498v228q0 11 2.5 23t10 21.5t20.5 15.5t34 6h188q31 0 51.5 -14.5t20.5 -52.5v-227h-327z" />
    

    
    <glyph glyph-name="xiangzuo" unicode="&#58880;" d="M795.742 830.566l-54.658 54.66-504.898-505.003 504.898-504.945 54.658 54.658-450.327 450.32z"  horiz-adv-x="1024" />

    
    <glyph glyph-name="xiangxia" unicode="&#58881;" d="M61.686 660.030l-54.66-54.658 505.003-504.898 504.945 504.898-54.658 54.658-450.32-450.327z"  horiz-adv-x="1024" />

    
    <glyph glyph-name="xiangshang" unicode="&#58882;" d="M962.314 100.471l54.66 54.66-505.003 504.898-504.945-504.898 54.658-54.66 450.32 450.329z"  horiz-adv-x="1024" />

    
    <glyph glyph-name="xiangyou" unicode="&#58883;" d="M228.258-68.64l54.658-54.66 504.898 505.003-504.898 504.945-54.658-54.658 450.327-450.32z"  horiz-adv-x="1024" />

    
    <glyph glyph-name="duigou" unicode="&#58902;" d="M957.59962027 732.31440221c-14.50044146 0-27.59916516-5.97708687-36.9816375-15.59836043l-0.04521701 0.04380304-555.25726876-555.86910689L105.07764419 422.18411926l-0.08336828-0.07771649c-9.46018881 10.62451932-23.24281536 17.32648825-38.5882444 17.32648825-28.54165116 0-51.67425057-23.13259941-51.67425057-51.67566318 0-15.27195175 6.63414341-28.99381855 17.17105527-38.45400735l-0.06075975-0.05652059 296.75178018-297.94295839c0.06641153-0.06641153 0.12717267-0.13847625 0.19923599-0.20488777 9.36692958-9.48138473 22.37663186-15.35532001 36.75414122-15.35532001 14.39587868 0 27.41688452 5.88947943 36.7838141 15.38358168l590.68740593 591.91249758c10.00137622 9.42203755 16.24976381 22.78075702 16.24976381 37.60054141C1009.26821906 709.18180281 986.13561966 732.31440221 957.59962027 732.31440221L957.59962027 732.31440221zM957.59962027 732.31440221"  horiz-adv-x="1024" />

    
    <glyph glyph-name="shuaxin" unicode="&#58884;" d="M1012.9585259999999 382.03320499999995c0.008185999999952287-201.15948599999996-128.43720799999997-388.602575-329.871963-453.7943429999999-250.028497-80.91896099999995-519.284917 56.680930000000075-600.2202509999998 306.7483130000001-2.849907999999999 8.660240000000002-2.143825999999997 17.901719 1.9708880000000075 25.997094000000004 4.121877 8.118911 11.204180000000001 14.141067999999997 19.939121000000004 16.967439999999996l0 0c17.850553000000005 5.778609999999996 37.087687-4.091178000000006 42.881645999999996-22.000060000000005 33.51430099999999-103.55551700000001 105.54584799999998-187.94553300000004 202.82440499999996-237.62295599999996 97.270371-49.66923600000001 207.89181699999997-58.56586000000004 311.48315-25.03927900000005 103.559611 33.51839499999998 187.95678900000001 105.53459199999995 237.63830500000003 202.76096 49.696866000000014 97.24274099999997 58.58939600000002 207.809953 25.069979000000046 311.38082C891.143133 611.0348059999999 819.1320520000002 695.4401719999998 721.9046609999999 745.109408c-97.21511199999998 49.66207300000001-207.794603 58.54948700000003-311.36547 25.031093000000055-108.247376-35.03391099999999-196.798155-113.77834599999996-244.712421-217.074967l125.27314500000003 40.538274999999985c17.940604 5.802145999999996 37.252438999999995-4.043083000000006 43.05049199999999-21.952988000000005 5.794982999999998-17.948791-4.044106000000006-37.310767-21.988804000000002-43.12109999999999l-186.95599599999997-60.50502600000001c-0.714268-0.23535999999999987-1.362021-0.345877-2.0138670000000003-0.4236489999999997-0.372483-0.24354699999999996-0.9936300000000001-0.5495149999999999-1.667989-0.7695259999999997-8.632611-2.795672999999997-17.893532-2.0179599999999986-26.067702000000004 2.1980620000000073-8.142446999999997 4.200672000000003-14.164603999999999 11.259438-16.955159999999996 19.887956000000003L12.711509999999976 692.1901510000001c-5.8185189999999976 17.909905000000002 4.059456000000004 37.185924 21.969361000000006 42.988069999999986 17.976419999999997 5.818518999999997 37.310767-4.01954700000001 43.109843999999995-21.929451999999998L113.82951200000002 601.8874719999999c57.60395300000002 110.409622 157.37426000000002 195.05137099999996 275.7073420000001 233.34348899999995 120.93535 39.14862499999997 250.03566 28.761043999999956 363.520317-29.231765000000053 113.487727-57.992809000000015 197.54823799999997-156.54640600000002 236.69583999999995-277.509385C1005.479181 479.89709399999987 1012.9544329999999 430.55633899999987 1012.9585259999999 382.03320499999995z"  horiz-adv-x="1024" />

    
    <glyph glyph-name="shebeijieru" unicode="&#58885;" d="M930.9886146875001-95.05405781249999H93.935785625c-16.8892790625 0-30.566101875 13.215090937500001-30.566101875 29.52931125V359.10861375c0 66.33769406249999 55.898615625000005 120.35004562499999 124.55059031249999 120.35004562499999h42.8661571875V834.466005c0 16.3189040625 13.674013125 29.533995 30.558609375 29.533995h502.23431999999997c16.8892790625 0 30.558609375-13.215090937500001 30.558608437500002-29.533995v-355.0082821875h42.866158125000005c68.6510371875 0 124.550589375-54.0114140625 124.550589375-120.35004562499999v-424.63242375000004c0.0018731250000000002-16.31422125-13.672139999999999-29.5293121875-30.566101875-29.52931125zM733.0141953125 804.9395034375H291.9102059375v-325.481780625h441.10398937499997V804.9395034375z m167.4092540625-445.8308896875c0 33.7869871875-28.4569321875 61.2848653125-63.4193221875 61.2848653125H187.92027406249997c-34.968946875 0-63.418386562500004-27.497878125-63.418386562500004-61.2848653125v-395.0993653125h775.9215618750001V359.10861375z m-418.5306290625 16.982936249999998h61.131267187499994v-154.3599375h159.746188125v-59.06424375H543.0240875v-154.35619125h-61.131267187499994V162.66736875000004H322.1475696875v59.06424375h159.745250625V376.09155z m-26.9733946875 201.674833125h-61.13501343749999V706.6270959375h61.132202812500005v-128.8607128125z m176.215880625 0h-61.126584375V706.6270959375H631.1324965625v-128.8607128125z"  horiz-adv-x="1024" />

    
    <glyph glyph-name="jinggao" unicode="&#58886;" d="M512 895.994C229.239 895.994 0.012 666.764 0.012 384S229.239-127.99000000000001 512-127.99000000000001 1024 101.23299999999995 1024 384 794.77 895.994 512 895.994z m0-930.9C280.651-34.89999999999998 93.1 152.64599999999996 93.1 384S280.651 802.9 512 802.9 930.9 615.352 930.9 384 743.358-34.89999999999998 512-34.89999999999998z m0 232.722a46.545 46.545 0 1 1 46.549-46.542A46.542 46.542 0 0 1 512 197.81899999999996z m0 465.448a46.539 46.539 0 0 1-46.54-46.542v-279.266a46.545 46.545 0 1 1 93.089 0V616.725A46.546 46.546 0 0 1 512 663.267z"  horiz-adv-x="1024" />

    
    <glyph glyph-name="bianji" unicode="&#58887;" d="M792.389-126H157.751c-58.318 0-105.773 49.226-105.773 109.718V715.092c0 60.479 47.456 109.7 105.773 109.7h493.6c19.492 0 35.262-16.378 35.262-36.565s-15.77-36.566-35.262-36.566h-493.6c-19.428 0-35.262-16.418-35.262-36.566v-731.377c0-20.2 15.834-36.574 35.262-36.574h634.638c19.457 0 35.256 16.378 35.256 36.574v585.1c0 20.187 15.758 36.57 35.255 36.57s35.256-16.383 35.256-36.57v-585.1c0-60.492-47.456-109.718-105.767-109.718zM585.243 459.11a34.517 34.517 0 0 0-24.92 10.715 37.484 37.484 0 0 0 0 51.7L910.707 884.957a34.333 34.333 0 0 0 49.857 0 37.49 37.49 0 0 0 0-51.71l-350.39-363.422a34.375 34.375 0 0 0-24.931-10.715z m-145.435 0H228.262c-19.462 0-35.255 16.378-35.255 36.565s15.793 36.571 35.255 36.571h211.552c19.457 0 35.25-16.379 35.25-36.571s-15.793-36.565-35.256-36.565z m211.546-219.417H228.262c-19.462 0-35.255 16.347-35.255 36.57s15.793 36.57 35.255 36.57h423.092c19.492 0 35.262-16.343 35.262-36.57s-15.77-36.57-35.262-36.57z"  horiz-adv-x="1024" />

    
    <glyph glyph-name="shanchu" unicode="&#58888;" d="M984.994 682.09h-96.226v-678.94c-0.035-71.21-58.061-129.15-129.412-129.15H264.585c-71.322 0-129.377 57.909-129.377 129.12V682.09H38.947a36.891 36.891 0 1 0 0 73.781h229.827l81.286 121.7A36.9 36.9 0 0 0 380.8 894h262.34a36.9 36.9 0 0 0 30.74-16.423l81.287-121.7h229.827a36.891 36.891 0 1 0 0-73.787zM623.354 820.221H400.587l-42.994-64.35h308.755zM814.832 682.09H209.138v-678.94a55.474 55.474 0 0 1 55.447-55.335h494.8a55.471 55.471 0 0 1 55.447 55.335V682.09zM688.583 18.309999999999945a36.952 36.952 0 0 0-37 36.9V566.441a36.966 36.966 0 0 0 73.931 0V55.200000000000045a36.935 36.935 0 0 0-36.931-36.89z m-176.578 0a36.942 36.942 0 0 0-36.968 36.9V566.441a36.966 36.966 0 0 0 73.931 0V55.200000000000045a36.982 36.982 0 0 0-36.963-36.89z m-176.612 0a36.944 36.944 0 0 0-37 36.9V566.441a36.963 36.963 0 0 0 73.925 0V55.200000000000045a36.952 36.952 0 0 0-36.925-36.89z"  horiz-adv-x="1024" />

    
    <glyph glyph-name="guanbi" unicode="&#58889;" d="M571.4 384.49l438.294 437.88a41.983 41.983 0 0 1-59.405 59.34l-438.3-437.86L73.7 881.71a41.983 41.983 0 0 1-59.407-59.34l438.3-437.88-438.3-437.87a41.983 41.983 0 0 1 59.407-59.34L512 325.14l438.3-437.86a41.984 41.984 0 1 1 59.409 59.34z"  horiz-adv-x="1024" />

    
    <glyph glyph-name="baocun" unicode="&#58896;" d="M607.623 575.25a31.867 31.867 0 0 1 31.877 31.87v127.5a31.875 31.875 0 1 1-63.749 0v-127.5a31.866 31.866 0 0 1 31.872-31.87zM958.25 1.5a63.773 63.773 0 0 0-63.749-63.75h-765a63.773 63.773 0 0 0-63.749 63.75v765a63.773 63.773 0 0 0 63.749 63.75h63.749V511.5A63.774 63.774 0 0 1 257 447.75h510a63.772 63.772 0 0 1 63.749 63.75V830.25H894.5a63.773 63.773 0 0 0 63.749-63.75v-765zM257 830.25h510v-286.87a31.868 31.868 0 0 0-31.872-31.88H288.873A31.868 31.868 0 0 0 257 543.38V830.25zM894.5 894h-765A127.5 127.5 0 0 1 2 766.5v-765A127.5 127.5 0 0 1 129.5-126h765A127.505 127.505 0 0 1 1022 1.5v765A127.505 127.505 0 0 1 894.5 894z"  horiz-adv-x="1024" />

    
    <glyph glyph-name="jiaruxiangmu" unicode="&#58897;" d="M979.675 455.65c-2.96 4.49-6.245 9.48-7.635 11.94v1.12L775.829 784.3c-30.5 53.74-87.757 58.24-139.031 58.24-4.289 0-8.55-0.03-12.758-0.05-4.08-0.03-8.119-0.06-12.087-0.06H412.065c-6.426 0-13.027 0.14-19.728 0.28-7.027 0.14-14.159 0.29-21.3 0.29-48.139 0-96.325-7.13-122.864-58.71l-196.2-315.58v-1.04c-1.366-2.36-4.453-7.02-7.237-11.22C28.748 432.32 2 391.94 2 359.73v-317.14c0-64.29 49.453-116.6 110.234-116.6H911.79c60.782 0 110.22 52.31 110.22 116.6V359.73c0 31.64-26.495 71.88-42.335 95.92z m-872.293-23.13c5.352 7.86 8.084 11.87 9.3 15.11l173.892 278.82 0.409 0.72c17.9 34.14 50.561 41.14 94.078 41.14 6.338 0 12.653-0.13 18.869-0.25 6.158-0.12 12.222-0.24 18.123-0.24h179.9c3.607 0 7.278 0.02 10.99 0.04 3.758 0.03 7.564 0.05 11.393 0.05 42.956 0 86.747-3.18 109.1-41.46L907.29 447.68c1.232-3.36 4.051-7.52 9.666-15.81 1.751-2.59 3.653-5.4 5.649-8.4h-270.97V264.9H372.376V423.47h-271.11c2.165 3.25 4.234 6.28 6.116 9.05zM951.473 69.10000000000002c0-44.81-23.259-68.49-67.248-68.49H139.792c-43.995 0-67.248 23.68-67.248 68.49V348.85h229.287v-121.26c0-20.58 15.823-37.31 35.27-37.31h349.81c19.447 0 35.269 16.73 35.269 37.31V348.85h229.293V69.10000000000002zM389.384 530.12a28.215 28.215 0 0 0 0 38.32l104.508 110.54a24.626 24.626 0 0 0 36.227 0l104.514-110.54a28.215 28.215 0 0 0 0-38.32 24.633 24.633 0 0 0-36.233 0l-60.775 64.28v-214.96c0-14.97-11.469-27.1-25.616-27.1s-25.623 12.13-25.623 27.1V594.4l-60.775-64.28a24.626 24.626 0 0 0-36.227 0z"  horiz-adv-x="1024" />

    
    <glyph glyph-name="sousuo" unicode="&#58898;" d="M1007.96-38.299999999999955l-0.03 0.03v-0.03h0.03q14.01-15.93 14.04-35.27 0-21.63-15.81-37a52.646 52.646 0 0 0-38.058-15.39 58.407 58.407 0 0 0-18.14 2.86 49 49 0 0 0-15.811 8.5l-5.854 4.57-289.2 283.43q-104.154-71.73-232.981-71.71-12.877 0-26.316 1.11-13.256 1.11-26.352 3.42A383.4 383.4 0 0 0 187.2 165.44000000000005Q105.265 216.64999999999998 56.09 300.9a364.435 364.435 0 0 0-36.89 83.09 396.948 396.948 0 0 0-16.395 89.93 375.545 375.545 0 0 0 5.27 91.06 369.6 369.6 0 0 0 51.536 137.18A382.757 382.757 0 0 0 160.29 810.88a393.767 393.767 0 0 0 115.329 61.48A403.808 403.808 0 0 0 406.142 894a407.895 407.895 0 0 0 186.167-44.4A389.549 389.549 0 0 0 702.4 767.64q54.979-55.8 83.677-132.06t25.185-154.8q-4.675-130.95-92.5-235.64L1009.1-38.299999999999955h-1.14zM750.373 481.91a311.573 311.573 0 0 1-23.405 136.59 319.361 319.361 0 0 1-40.995 75.13 335.987 335.987 0 0 1-60.268 63.19 342.867 342.867 0 0 1-256.974 74.56 54.1 54.1 0 0 1-10.541-1.13l-7.045-1.13a337.441 337.441 0 0 1-138.733-54.06 325.492 325.492 0 0 1-101.263-106.44q-43.284-69.4-47.433-154.81-4.106-85.38 32.206-158.24a319.673 319.673 0 0 1 88.365-113.83 341.606 341.606 0 0 1 129.36-67.18 344.141 344.141 0 0 1 228.323 14.79 356.083 356.083 0 0 1 69.641 39.27 351.148 351.148 0 0 1 58.552 53.52 307.755 307.755 0 0 1 43.908 65.45v-0.03a319.938 319.938 0 0 1 36.308 134.35z"  horiz-adv-x="1024" />

    
    <glyph glyph-name="tianjia" unicode="&#58899;" d="M991.108 413.84H542.784V862.16a30.831 30.831 0 0 1-61.662 0v-448.32H32.792a30.835 30.835 0 0 1 0-61.67h448.33v-448.32a30.831 30.831 0 0 1 61.662 0V352.16999999999996h448.324a30.835 30.835 0 0 1 0 61.67z"  horiz-adv-x="1024" />

    
    <glyph glyph-name="fenzu" unicode="&#58900;" d="M937.992 894H400.953c-19.657 0-35.457-16.58-35.457-37.56 0-20.82 15.8-37.72 35.615-37.64h537.744c6.368 0 12.029-6.13 12.029-13.04v-573a37.163 37.163 0 0 1 9.432-27.03l0.082-0.08a36.515 36.515 0 0 1 26.1-12.26c19.651 0 35.461 16.82 35.461 37.72V804.73c0.001 49.35-37.585 89.43-83.967 89.27zM810.867 759.79H273.829c-19.658 0-35.539-16.82-35.539-37.8 0-20.9 15.881-37.8 35.539-37.8h538.059c6.368 0 12.029-6.13 12.029-12.96V97.60000000000002c0-22 15.333-38.5 35.218-38.5 19.733 0 35.538 16.82 35.538 37.72V670.44c0 49.27-37.581 89.35-83.806 89.35zM659.1-125.99000000000001H109.31c-59.182 0-107.333 50.41-107.333 112.38V511.18c0 61.97 48.151 112.39 107.333 112.39H659.1c59.188 0 107.333-50.42 107.333-112.39v-524.79c0.001-61.97-48.144-112.38-107.333-112.38zM109.31 562.28c-25.372 0-46.015-22.92-46.015-51.1v-524.79c0-28.17 20.644-51.09 46.015-51.09H659.1c25.371 0 46.015 22.92 46.015 51.09V511.18c0 28.18-20.644 51.1-46.015 51.1H109.31z"  horiz-adv-x="1024" />

    
    <glyph glyph-name="xiangqing" unicode="&#58901;" d="M370.612 455.6H76.651C35.487 455.6 2 490.55 2 533.49V816.1C2 859.05 35.49 893.99 76.655 893.99h293.957c41.165 0 74.649-34.94 74.649-77.89v-282.61c0-42.94-33.484-77.89-74.649-77.89zM76.651 826.23c-3.473 0-7.342-4.16-7.342-10.13v-282.61c0-5.97 3.87-10.13 7.342-10.13h293.961c3.473 0 7.342 4.16 7.342 10.13V816.1c0 5.97-3.869 10.13-7.342 10.13H76.651z m911.683-78.63H582.185a33.876 33.876 0 0 0 0 67.75h406.149a33.876 33.876 0 0 0 0-67.75z m0-213.36H582.185a33.876 33.876 0 0 0 0 67.75h406.149a33.876 33.876 0 0 0 0-67.75z m0-368.23H582.185a33.881 33.881 0 0 0 0 67.76h406.149a33.881 33.881 0 0 0 0-67.76z m0-213.36H582.185a33.881 33.881 0 0 0 0 67.76h406.149a33.881 33.881 0 0 0 0-67.76z m-617.722-78.63H76.651C35.487-125.98000000000002 2-91.03999999999996 2-48.09000000000003v282.6c0 42.95 33.49 77.9 74.655 77.9h293.957c41.165 0 74.649-34.95 74.649-77.9v-282.6c0-42.95-33.484-77.89-74.649-77.89zM76.651 244.64999999999998c-3.473 0-7.342-4.17-7.342-10.14v-282.6c0-5.97 3.87-10.14 7.342-10.14h293.961c3.473 0 7.342 4.17 7.342 10.14v282.6c0 5.97-3.869 10.14-7.342 10.14H76.651z"  horiz-adv-x="1024" />

    
    <glyph glyph-name="fanhui" unicode="&#58903;" d="M545.416-125.99000000000001H141.534a28.6 28.6 0 1 0 0 57.19h403.882c195.811 0 355.112 158.55 355.112 353.44s-159.3 353.44-355.112 353.44H164.094l150.754-150.04a28.662 28.662 0 0 0-40.628-40.44L74.42 646.46a28.5 28.5 0 0 0 0 40.44l199.8 198.85a28.818 28.818 0 0 0 40.628 0 28.488 28.488 0 0 0 0-40.43L164.085 695.27h381.331c227.495 0 412.574-184.21 412.574-410.63s-185.079-410.63-412.574-410.63z"  horiz-adv-x="1024" />

    
    <glyph glyph-name="xiazai" unicode="&#58904;" d="M977.433-125.99000000000001H46.566a44.6 44.6 0 0 0 0 89.19h930.867a44.6 44.6 0 0 0 0-89.19z m-431.127 186.6a44.56 44.56 0 0 0-68.806 0L145.92 392.43a44.581 44.581 0 1 0 63.023 63.07l258.393-258.58V849.4a44.568 44.568 0 1 0 89.135 0v-652.48L814.858 455.5a44.582 44.582 0 1 0 63.028-63.07z"  horiz-adv-x="1024" />

    


  </font>
</defs>
</svg>
